<?xml version="1.0" encoding="utf-8"?>
<!-- Generator: Adobe Illustrator 18.0.0, SVG Export Plug-In . SVG Version: 6.00 Build 0)  -->
<!DOCTYPE svg PUBLIC "-//W3C//DTD SVG 1.1//EN" "http://www.w3.org/Graphics/SVG/1.1/DTD/svg11.dtd">
<svg version="1.1" id="Layer_1" xmlns="http://www.w3.org/2000/svg" xmlns:xlink="http://www.w3.org/1999/xlink" x="0px" y="0px"
	 viewBox="0 0 425.2 425.2" enable-background="new 0 0 425.2 425.2" xml:space="preserve">
<text id="XMLID_673_" transform="matrix(1 0 0 1 207.7384 189.2844)"><tspan x="0" y="0" font-family="'RobotoCondensed-Bold'" font-size="10.4281">01110</tspan><tspan x="0" y="12.5" font-family="'RobotoCondensed-Bold'" font-size="10.4281">10010</tspan><tspan x="0" y="25" font-family="'RobotoCondensed-Bold'" font-size="10.4281">10101</tspan><tspan x="0" y="37.5" font-family="'RobotoCondensed-Bold'" font-size="10.4281">00001</tspan><tspan x="0" y="50.1" font-family="'RobotoCondensed-Bold'" font-size="10.4281">11101</tspan><tspan x="0" y="62.6" font-family="'RobotoCondensed-Bold'" font-size="10.4281">11000</tspan><tspan x="0" y="75.1" font-family="'RobotoCondensed-Bold'" font-size="10.4281">10011</tspan><tspan x="0" y="87.6" font-family="'RobotoCondensed-Bold'" font-size="10.4281">01110</tspan><tspan x="0" y="100.1" font-family="'RobotoCondensed-Bold'" font-size="10.4281">00111</tspan><tspan x="0" y="112.6" font-family="'RobotoCondensed-Bold'" font-size="10.4281">01110</tspan></text>
<g>
	<path id="XMLID_672_" fill="none" stroke="#000000" stroke-width="2.5" stroke-miterlimit="10" d="M131.8,214.8L131.8,214.8
		c-0.9,0-1.6-0.7-1.6-1.6v-15.9c0-0.9,0.7-1.6,1.6-1.6l0,0c0.9,0,1.6,0.7,1.6,1.6v15.9C133.3,214.1,132.6,214.8,131.8,214.8z"/>
	<g id="XMLID_669_">
		<defs>
			<rect id="XMLID_670_" x="121.9" y="197.7" width="7.5" height="14.7"/>
		</defs>
		<clipPath id="XMLID_2_">
			<use xlink:href="#XMLID_670_"  overflow="visible"/>
		</clipPath>
		
			<ellipse id="XMLID_671_" clip-path="url(#XMLID_2_)" fill="none" stroke="#000000" stroke-width="2.5" stroke-miterlimit="10" cx="129.4" cy="205" rx="5.8" ry="5.9"/>
	</g>
	<path id="XMLID_668_" fill="none" stroke="#000000" stroke-width="2.5" stroke-miterlimit="10" d="M127.1,199.6v-6.9
		c0,0,1.3-10,11.7-10h2.6c10.4,0,11.7,10,11.7,10v6.9"/>
	<path id="XMLID_667_" fill="none" stroke="#000000" stroke-width="2.5" stroke-miterlimit="10" d="M148.3,214.8L148.3,214.8
		c0.9,0,1.6-0.7,1.6-1.6v-15.9c0-0.9-0.7-1.6-1.6-1.6l0,0c-0.9,0-1.6,0.7-1.6,1.6v15.9C146.7,214.1,147.5,214.8,148.3,214.8z"/>
	<g id="XMLID_664_">
		<defs>
			<rect id="XMLID_665_" x="150.6" y="197.7" width="7.6" height="14.7"/>
		</defs>
		<clipPath id="XMLID_3_">
			<use xlink:href="#XMLID_665_"  overflow="visible"/>
		</clipPath>
		
			<ellipse id="XMLID_666_" clip-path="url(#XMLID_3_)" fill="none" stroke="#000000" stroke-width="2.5" stroke-miterlimit="10" cx="150.6" cy="205" rx="5.8" ry="5.9"/>
	</g>
</g>
<g>
	<path id="XMLID_663_" fill="none" stroke="#000000" stroke-width="2.5" stroke-miterlimit="10" d="M151.5,258.3h-22
		c-2.2,0-4-1.8-4-4v-19.7h30v19.7C155.5,256.5,153.7,258.3,151.5,258.3z"/>
	
		<line id="XMLID_662_" fill="none" stroke="#000000" stroke-width="2.5" stroke-miterlimit="10" x1="125.5" y1="238.5" x2="155.5" y2="238.5"/>
	
		<line id="XMLID_661_" fill="none" stroke="#000000" stroke-width="2.5" stroke-miterlimit="10" x1="127.9" y1="238.5" x2="131.7" y2="234.7"/>
	
		<line id="XMLID_660_" fill="none" stroke="#000000" stroke-width="2.5" stroke-miterlimit="10" x1="127.7" y1="229.3" x2="132.7" y2="232.6"/>
	
		<line id="XMLID_659_" fill="none" stroke="#000000" stroke-width="2.5" stroke-miterlimit="10" x1="134.6" y1="228.1" x2="139.5" y2="231.2"/>
	
		<line id="XMLID_658_" fill="none" stroke="#000000" stroke-width="2.5" stroke-miterlimit="10" x1="141.1" y1="226.9" x2="145.6" y2="229.8"/>
	
		<line id="XMLID_657_" fill="none" stroke="#000000" stroke-width="2.5" stroke-miterlimit="10" x1="147.5" y1="225.6" x2="152" y2="228.6"/>
	
		<line id="XMLID_656_" fill="none" stroke="#000000" stroke-width="2.5" stroke-miterlimit="10" x1="134.9" y1="238.5" x2="138.8" y2="234.7"/>
	
		<line id="XMLID_649_" fill="none" stroke="#000000" stroke-width="2.5" stroke-miterlimit="10" x1="142" y1="238.5" x2="145.8" y2="234.7"/>
	
		<line id="XMLID_648_" fill="none" stroke="#000000" stroke-width="2.5" stroke-miterlimit="10" x1="149" y1="238.5" x2="152.9" y2="234.7"/>
	<polygon id="XMLID_647_" fill="none" stroke="#000000" stroke-width="2.5" stroke-miterlimit="10" points="154.8,228.3 
		125.3,233.9 124.6,229.9 154.1,224.2 	"/>
</g>
<g>
	<path id="XMLID_646_" fill="none" stroke="#000000" stroke-width="2.5" stroke-miterlimit="10" d="M195.2,214.4h-24.6
		c-1.8,0-3.3-1.5-3.3-3.3v-24.6c0-1.8,1.5-3.3,3.3-3.3h24.6c1.8,0,3.3,1.5,3.3,3.3v24.6C198.5,212.9,197,214.4,195.2,214.4z"/>
	
		<polygon id="XMLID_645_" fill="none" stroke="#000000" stroke-width="2.5" stroke-linejoin="round" stroke-miterlimit="10" points="
		178.4,189.5 190.1,198.8 178.4,208 	"/>
</g>
<g>
	
		<line id="XMLID_751_" fill="none" stroke="#000000" stroke-width="2.5" stroke-linecap="round" stroke-miterlimit="10" x1="167.5" y1="227.9" x2="187.7" y2="227.9"/>
	
		<line id="XMLID_750_" fill="none" stroke="#000000" stroke-width="2.5" stroke-linecap="round" stroke-miterlimit="10" x1="167.5" y1="233.5" x2="187.7" y2="233.5"/>
	
		<line id="XMLID_749_" fill="none" stroke="#000000" stroke-width="2.5" stroke-linecap="round" stroke-miterlimit="10" x1="167.5" y1="239.1" x2="187.7" y2="239.1"/>
	
		<line id="XMLID_748_" fill="none" stroke="#000000" stroke-width="2.5" stroke-linecap="round" stroke-miterlimit="10" x1="167.5" y1="244.7" x2="187.7" y2="244.7"/>
	
		<line id="XMLID_747_" fill="none" stroke="#000000" stroke-width="2.5" stroke-linecap="round" stroke-miterlimit="10" x1="167.5" y1="250.3" x2="187.7" y2="250.3"/>
	
		<line id="XMLID_746_" fill="none" stroke="#000000" stroke-width="2.5" stroke-linecap="round" stroke-miterlimit="10" x1="167.5" y1="255.8" x2="187.7" y2="255.8"/>
	<ellipse id="XMLID_745_" fill="#FFFFFF" cx="188.5" cy="249.3" rx="6" ry="5.6"/>
	
		<ellipse id="XMLID_644_" fill="none" stroke="#000000" stroke-width="2.5" stroke-miterlimit="10" cx="188.5" cy="249.3" rx="3.5" ry="3.2"/>
	<path id="XMLID_643_" fill="none" stroke="#000000" stroke-width="2.5" stroke-miterlimit="10" d="M192.1,249.3V236
		c0,0,2.9,3.4,6.2,3.4"/>
</g>
<line id="XMLID_642_" fill="none" stroke="#000000" stroke-width="3" stroke-linecap="round" stroke-miterlimit="10" x1="241" y1="193.9" x2="317.4" y2="193.9"/>
<line id="XMLID_641_" fill="none" stroke="#000000" stroke-width="3" stroke-linecap="round" stroke-miterlimit="10" x1="241" y1="204.6" x2="317.4" y2="204.6"/>
<line id="XMLID_639_" fill="none" stroke="#000000" stroke-width="3" stroke-linecap="round" stroke-miterlimit="10" x1="241" y1="215.2" x2="317.4" y2="215.2"/>
<line id="XMLID_636_" fill="none" stroke="#000000" stroke-width="3" stroke-linecap="round" stroke-miterlimit="10" x1="241" y1="225.9" x2="317.4" y2="225.9"/>
<line id="XMLID_635_" fill="none" stroke="#000000" stroke-width="3" stroke-linecap="round" stroke-miterlimit="10" x1="241" y1="236.6" x2="317.4" y2="236.6"/>
<line id="XMLID_634_" fill="none" stroke="#000000" stroke-width="3" stroke-linecap="round" stroke-miterlimit="10" x1="241" y1="183.2" x2="317.4" y2="183.2"/>
<line id="XMLID_633_" fill="none" stroke="#000000" stroke-width="3" stroke-linecap="round" stroke-miterlimit="10" x1="241" y1="247.3" x2="317.4" y2="247.3"/>
<line id="XMLID_9_" fill="none" stroke="#000000" stroke-width="3" stroke-linecap="round" stroke-miterlimit="10" x1="241" y1="258" x2="317.4" y2="258"/>
<line id="XMLID_10_" fill="none" stroke="#000000" stroke-width="3" stroke-linecap="round" stroke-miterlimit="10" x1="241" y1="268.6" x2="317.4" y2="268.6"/>
<line id="XMLID_20_" fill="none" stroke="#000000" stroke-width="3" stroke-linecap="round" stroke-miterlimit="10" x1="241" y1="279.3" x2="317.4" y2="279.3"/>
<line id="XMLID_19_" fill="none" stroke="#000000" stroke-width="3" stroke-linecap="round" stroke-miterlimit="10" x1="241" y1="290" x2="317.4" y2="290"/>
<line id="XMLID_18_" fill="none" stroke="#000000" stroke-width="3" stroke-linecap="round" stroke-miterlimit="10" x1="241" y1="300.7" x2="317.4" y2="300.7"/>
<path id="XMLID_65_" fill="none" stroke="#000000" stroke-width="4.1404" stroke-miterlimit="10" d="M350.2,335.2H90.6V158.1
	c0-4.7,3.4-8.6,7.5-8.6h244.5c4.1,0,7.5,3.8,7.5,8.6V335.2z"/>
<path id="XMLID_58_" fill="none" stroke="#000000" stroke-width="3.8791" stroke-miterlimit="10" d="M363.9,349.6H76.2
	c-5.8,0-10.5-4.7-10.5-10.5l0,0c0-2,1.7-3.7,3.7-3.7h301.3c2,0,3.7,1.7,3.7,3.7l0,0C374.4,344.9,369.7,349.6,363.9,349.6z"/>
<path id="XMLID_56_" fill="none" stroke="#000000" stroke-width="3.8791" stroke-miterlimit="10" d="M263,341.7h-85.7
	c-2,0-3.7-1.7-3.7-3.7v-2.6h93.1v2.6C266.8,340,265.1,341.7,263,341.7z"/>
<rect id="XMLID_55_" x="106.7" y="167.2" fill="none" stroke="#000000" stroke-width="4.1404" stroke-miterlimit="10" width="227.6" height="149.5"/>
<text id="XMLID_7_" transform="matrix(1 0 0 1 49.6162 90.413)" font-family="'MyriadPro-Regular'" font-size="21">1. Interactive Features Development</text>
<g id="XMLID_17_">
	<circle id="XMLID_29_" fill="none" stroke="#000000" stroke-width="2.5" stroke-miterlimit="10" cx="140.1" cy="283.5" r="16.8"/>
	
		<line id="XMLID_28_" fill="none" stroke="#000000" stroke-width="2.5" stroke-miterlimit="10" x1="140.1" y1="300.3" x2="140.1" y2="266.7"/>
	
		<line id="XMLID_26_" fill="none" stroke="#000000" stroke-width="2.5" stroke-miterlimit="10" x1="124.4" y1="277.9" x2="155.7" y2="277.9"/>
	
		<line id="XMLID_25_" fill="none" stroke="#000000" stroke-width="2.5" stroke-miterlimit="10" x1="124.4" y1="289.1" x2="155.7" y2="289.1"/>
	<path id="XMLID_24_" fill="none" stroke="#000000" stroke-width="2.5" stroke-miterlimit="10" d="M140,266.7c0,0-8.6,2.4-9.2,11.4
		v12c0,0,1.5,9.8,9.2,10.2"/>
	<path id="XMLID_23_" fill="none" stroke="#000000" stroke-width="2.5" stroke-miterlimit="10" d="M140.3,266.7
		c0,0,8.6,2.4,9.2,11.4v12c0,0-1.5,9.8-9.2,10.2"/>
</g>
<g>
	<path id="XMLID_22_" fill="none" stroke="#000000" stroke-width="2.5" stroke-miterlimit="10" d="M197.9,297.8h-30
		c-0.4,0-0.7-0.4-0.7-0.9v-26.8c0-0.5,0.3-0.9,0.7-0.9h30c0.4,0,0.7,0.4,0.7,0.9v26.8C198.5,297.4,198.2,297.8,197.9,297.8z"/>
	<line fill="none" stroke="#000000" stroke-width="2.5" stroke-miterlimit="10" x1="167.2" y1="273.9" x2="198.5" y2="273.9"/>
	<line fill="none" stroke="#000000" stroke-width="2.5" stroke-miterlimit="10" x1="167.2" y1="292.6" x2="198.5" y2="292.6"/>
	<line fill="none" stroke="#000000" stroke-width="2.5" stroke-miterlimit="10" x1="174.4" y1="292.6" x2="174.4" y2="297.8"/>
	<line fill="none" stroke="#000000" stroke-width="2.5" stroke-miterlimit="10" x1="180.1" y1="292.6" x2="180.1" y2="297.8"/>
	<line fill="none" stroke="#000000" stroke-width="2.5" stroke-miterlimit="10" x1="185.8" y1="292.6" x2="185.8" y2="297.8"/>
	<line fill="none" stroke="#000000" stroke-width="2.5" stroke-miterlimit="10" x1="191.5" y1="292.6" x2="191.5" y2="297.8"/>
	<line fill="none" stroke="#000000" stroke-width="2.5" stroke-miterlimit="10" x1="174.4" y1="269.2" x2="174.4" y2="274.3"/>
	<line fill="none" stroke="#000000" stroke-width="2.5" stroke-miterlimit="10" x1="180.1" y1="269.2" x2="180.1" y2="274.3"/>
	<line fill="none" stroke="#000000" stroke-width="2.5" stroke-miterlimit="10" x1="185.8" y1="269.2" x2="185.8" y2="274.3"/>
	<line fill="none" stroke="#000000" stroke-width="2.5" stroke-miterlimit="10" x1="191.5" y1="269.2" x2="191.5" y2="274.3"/>
</g>
</svg>
